<svg width="36" height="36" viewBox="0 0 36 36" fill="none" xmlns="http://www.w3.org/2000/svg">
<path d="M26.1413 16.858H12.5882L16.7364 11.8755C16.9304 11.6422 17.0237 11.3413 16.9959 11.0391C16.968 10.737 16.8213 10.4582 16.5879 10.2643C16.3545 10.0703 16.0537 9.97698 15.7515 10.0048C15.4493 10.0327 15.1706 10.1795 14.9766 10.4128L9.26283 17.2694C9.22439 17.3239 9.19002 17.3812 9.15999 17.4408C9.15999 17.4979 9.15999 17.5322 9.07999 17.5893C9.0282 17.7203 9.00108 17.8598 9 18.0007C9.00108 18.1416 9.0282 18.2811 9.07999 18.4121C9.07999 18.4692 9.07999 18.5035 9.15999 18.5607C9.19002 18.6202 9.22439 18.6775 9.26283 18.7321L14.9766 25.5886C15.0841 25.7176 15.2186 25.8213 15.3707 25.8924C15.5228 25.9635 15.6886 26.0003 15.8565 26C16.1235 26.0005 16.3823 25.9075 16.5879 25.7372C16.7036 25.6412 16.7993 25.5234 16.8694 25.3905C16.9395 25.2575 16.9827 25.112 16.9965 24.9623C17.0103 24.8127 16.9944 24.6617 16.9498 24.5182C16.9052 24.3747 16.8327 24.2414 16.7364 24.1259L12.5882 19.1435H26.1413C26.4444 19.1435 26.7351 19.0231 26.9494 18.8088C27.1637 18.5945 27.2841 18.3038 27.2841 18.0007C27.2841 17.6976 27.1637 17.407 26.9494 17.1927C26.7351 16.9784 26.4444 16.858 26.1413 16.858Z" fill="white"/>
</svg>
