<svg width="12" height="12" viewBox="0 0 12 12" fill="none" xmlns="http://www.w3.org/2000/svg">
<path d="M0.968387 0.968875C1.03806 0.899031 1.12082 0.843616 1.21194 0.805806C1.30305 0.767997 1.40074 0.748535 1.49939 0.748535C1.59804 0.748535 1.69572 0.767997 1.78684 0.805806C1.87796 0.843616 1.96072 0.899031 2.03039 0.968875L5.99939 4.93938L9.96839 0.968875C10.0381 0.899143 10.1209 0.843829 10.212 0.80609C10.3031 0.768352 10.4008 0.748928 10.4994 0.748928C10.598 0.748928 10.6957 0.768352 10.7868 0.80609C10.8779 0.843829 10.9607 0.899143 11.0304 0.968875C11.1001 1.03861 11.1554 1.12139 11.1932 1.2125C11.2309 1.30361 11.2503 1.40126 11.2503 1.49988C11.2503 1.59849 11.2309 1.69614 11.1932 1.78725C11.1554 1.87836 11.1001 1.96114 11.0304 2.03088L7.05989 5.99987L11.0304 9.96887C11.1001 10.0386 11.1554 10.1214 11.1932 10.2125C11.2309 10.3036 11.2503 10.4013 11.2503 10.4999C11.2503 10.5985 11.2309 10.6961 11.1932 10.7872C11.1554 10.8784 11.1001 10.9611 11.0304 11.0309C10.9607 11.1006 10.8779 11.1559 10.7868 11.1937C10.6957 11.2314 10.598 11.2508 10.4994 11.2508C10.4008 11.2508 10.3031 11.2314 10.212 11.1937C10.1209 11.1559 10.0381 11.1006 9.96839 11.0309L5.99939 7.06037L2.03039 11.0309C1.96066 11.1006 1.87787 11.1559 1.78676 11.1937C1.69565 11.2314 1.598 11.2508 1.49939 11.2508C1.40077 11.2508 1.30312 11.2314 1.21201 11.1937C1.1209 11.1559 1.03812 11.1006 0.968387 11.0309C0.898655 10.9611 0.843341 10.8784 0.805602 10.7872C0.767863 10.6961 0.74844 10.5985 0.74844 10.4999C0.74844 10.4013 0.767863 10.3036 0.805602 10.2125C0.843341 10.1214 0.898655 10.0386 0.968387 9.96887L4.93889 5.99987L0.968387 2.03088C0.898542 1.96121 0.843128 1.87844 0.805318 1.78733C0.767508 1.69621 0.748047 1.59853 0.748047 1.49988C0.748047 1.40122 0.767508 1.30354 0.805318 1.21242C0.843128 1.12131 0.898542 1.03854 0.968387 0.968875Z" fill="white"/>
</svg>
