<svg width="20" height="24" viewBox="0 0 20 24" fill="none" xmlns="http://www.w3.org/2000/svg">
<path d="M8.46 21.6H11.39V12.84H13.84L14.21 9.43199H11.39V7.24799C11.39 6.26399 11.62 5.59199 12.8 5.59199H14.31V2.53199C14.05 2.49599 13.16 2.39999 12.12 2.39999C9.94 2.39999 8.46 3.99599 8.46 6.91199V9.43199H6V12.84H8.46V21.6Z" fill="#C2C9D1"/>
<path d="M8.46 21.6H11.39V12.84H13.84L14.21 9.43199H11.39V7.24799C11.39 6.26399 11.62 5.59199 12.8 5.59199H14.31V2.53199C14.05 2.49599 13.16 2.39999 12.12 2.39999C9.94 2.39999 8.46 3.99599 8.46 6.91199V9.43199H6V12.84H8.46V21.6Z" fill="white" fill-opacity="0.5"/>
</svg>
