<svg width="24" height="24" viewBox="0 0 24 24" fill="none" xmlns="http://www.w3.org/2000/svg">
<path d="M12.0002 1.20001C9.06934 1.20001 8.70079 1.21351 7.54924 1.26481C6.3977 1.31881 5.61335 1.49971 4.9262 1.76701C4.20542 2.03812 3.55256 2.46338 3.01325 3.01306C2.4639 3.55265 2.03869 4.20544 1.7672 4.92601C1.4999 5.61181 1.31765 6.39751 1.265 7.54501C1.2137 8.69926 1.2002 9.06646 1.2002 12.0014C1.2002 14.9336 1.2137 15.3008 1.265 16.4523C1.319 17.6025 1.4999 18.3869 1.7672 19.074C2.04395 19.7841 2.4125 20.3862 3.01325 20.987C3.61265 21.5877 4.21475 21.9576 4.92485 22.233C5.61335 22.5003 6.39635 22.6826 7.54655 22.7352C8.69945 22.7865 9.06664 22.8 12.0002 22.8C14.9337 22.8 15.2996 22.7865 16.4525 22.7352C17.6013 22.6812 18.3884 22.5003 19.0755 22.233C19.7959 21.9618 20.4482 21.5365 20.9871 20.987C21.5879 20.3862 21.9564 19.7841 22.2332 19.074C22.4991 18.3869 22.6814 17.6025 22.7354 16.4523C22.7867 15.3008 22.8002 14.9336 22.8002 12C22.8002 9.06646 22.7867 8.69926 22.7354 7.54636C22.6814 6.39751 22.4991 5.61181 22.2332 4.92601C21.9617 4.20542 21.5365 3.55262 20.9871 3.01306C20.448 2.46317 19.7951 2.03788 19.0742 1.76701C18.3857 1.49971 17.6 1.31746 16.4511 1.26481C15.2982 1.21351 14.9324 1.20001 11.9975 1.20001H12.0015H12.0002ZM11.0322 3.14671H12.0015C14.8851 3.14671 15.2267 3.15616 16.3647 3.20881C17.4177 3.25606 17.9901 3.43291 18.3708 3.58006C18.8744 3.77581 19.2348 4.01071 19.6128 4.38871C19.9908 4.76671 20.2244 5.12581 20.4201 5.63071C20.5686 6.01006 20.7441 6.58246 20.7914 7.63546C20.844 8.77351 20.8548 9.11506 20.8548 11.9973C20.8548 14.8796 20.844 15.2225 20.7914 16.3605C20.7441 17.4135 20.5673 17.9846 20.4201 18.3653C20.247 18.8342 19.9706 19.2582 19.6115 19.6059C19.2335 19.9839 18.8744 20.2175 18.3695 20.4132C17.9915 20.5617 17.4191 20.7372 16.3647 20.7858C15.2267 20.8371 14.8851 20.8493 12.0015 20.8493C9.11795 20.8493 8.77504 20.8371 7.63699 20.7858C6.584 20.7372 6.01295 20.5617 5.63225 20.4132C5.16312 20.2403 4.73872 19.9644 4.39024 19.6059C4.03081 19.2577 3.75402 18.8332 3.58025 18.3639C3.4331 17.9846 3.25625 17.4122 3.209 16.3592C3.1577 15.2211 3.1469 14.8796 3.1469 11.9946C3.1469 9.11101 3.1577 8.77081 3.209 7.63276C3.2576 6.57976 3.4331 6.00736 3.5816 5.62666C3.77735 5.12311 4.01224 4.76266 4.39024 4.38466C4.76824 4.00666 5.12735 3.77311 5.63225 3.57736C6.01295 3.42886 6.584 3.25336 7.63699 3.20476C8.6333 3.15886 9.01939 3.14536 11.0322 3.14401V3.14671ZM17.766 4.93951C17.5958 4.93951 17.4273 4.97303 17.2701 5.03816C17.1128 5.10329 16.97 5.19876 16.8496 5.3191C16.7293 5.43945 16.6338 5.58232 16.5687 5.73955C16.5036 5.89679 16.47 6.06532 16.47 6.23551C16.47 6.4057 16.5036 6.57423 16.5687 6.73147C16.6338 6.88871 16.7293 7.03158 16.8496 7.15192C16.97 7.27227 17.1128 7.36773 17.2701 7.43286C17.4273 7.49799 17.5958 7.53151 17.766 7.53151C18.1098 7.53151 18.4394 7.39497 18.6825 7.15192C18.9255 6.90887 19.062 6.57923 19.062 6.23551C19.062 5.89179 18.9255 5.56215 18.6825 5.3191C18.4394 5.07605 18.1098 4.93951 17.766 4.93951ZM12.0015 6.45421C11.2659 6.44273 10.5353 6.57772 9.85231 6.8513C9.16933 7.12489 8.54759 7.53161 8.0233 8.04778C7.49901 8.56396 7.08264 9.17928 6.79843 9.85791C6.51422 10.5365 6.36786 11.2649 6.36786 12.0007C6.36786 12.7364 6.51422 13.4648 6.79843 14.1435C7.08264 14.8221 7.49901 15.4374 8.0233 15.9536C8.54759 16.4698 9.16933 16.8765 9.85231 17.1501C10.5353 17.4237 11.2659 17.5586 12.0015 17.5472C13.4576 17.5244 14.8463 16.9301 15.8679 15.8924C16.8895 14.8547 17.4622 13.4569 17.4622 12.0007C17.4622 10.5445 16.8895 9.14667 15.8679 8.10897C14.8463 7.07128 13.4576 6.47693 12.0015 6.45421ZM12.0015 8.39956C12.9564 8.39956 13.8722 8.77889 14.5474 9.45411C15.2227 10.1293 15.602 11.0451 15.602 12C15.602 12.9549 15.2227 13.8707 14.5474 14.5459C13.8722 15.2211 12.9564 15.6005 12.0015 15.6005C11.0466 15.6005 10.1309 15.2211 9.45564 14.5459C8.78043 13.8707 8.40109 12.9549 8.40109 12C8.40109 11.0451 8.78043 10.1293 9.45564 9.45411C10.1309 8.77889 11.0466 8.39956 12.0015 8.39956Z" fill="#C2C9D1"/>
<path d="M12.0002 1.20001C9.06934 1.20001 8.70079 1.21351 7.54924 1.26481C6.3977 1.31881 5.61335 1.49971 4.9262 1.76701C4.20542 2.03812 3.55256 2.46338 3.01325 3.01306C2.4639 3.55265 2.03869 4.20544 1.7672 4.92601C1.4999 5.61181 1.31765 6.39751 1.265 7.54501C1.2137 8.69926 1.2002 9.06646 1.2002 12.0014C1.2002 14.9336 1.2137 15.3008 1.265 16.4523C1.319 17.6025 1.4999 18.3869 1.7672 19.074C2.04395 19.7841 2.4125 20.3862 3.01325 20.987C3.61265 21.5877 4.21475 21.9576 4.92485 22.233C5.61335 22.5003 6.39635 22.6826 7.54655 22.7352C8.69945 22.7865 9.06664 22.8 12.0002 22.8C14.9337 22.8 15.2996 22.7865 16.4525 22.7352C17.6013 22.6812 18.3884 22.5003 19.0755 22.233C19.7959 21.9618 20.4482 21.5365 20.9871 20.987C21.5879 20.3862 21.9564 19.7841 22.2332 19.074C22.4991 18.3869 22.6814 17.6025 22.7354 16.4523C22.7867 15.3008 22.8002 14.9336 22.8002 12C22.8002 9.06646 22.7867 8.69926 22.7354 7.54636C22.6814 6.39751 22.4991 5.61181 22.2332 4.92601C21.9617 4.20542 21.5365 3.55262 20.9871 3.01306C20.448 2.46317 19.7951 2.03788 19.0742 1.76701C18.3857 1.49971 17.6 1.31746 16.4511 1.26481C15.2982 1.21351 14.9324 1.20001 11.9975 1.20001H12.0015H12.0002ZM11.0322 3.14671H12.0015C14.8851 3.14671 15.2267 3.15616 16.3647 3.20881C17.4177 3.25606 17.9901 3.43291 18.3708 3.58006C18.8744 3.77581 19.2348 4.01071 19.6128 4.38871C19.9908 4.76671 20.2244 5.12581 20.4201 5.63071C20.5686 6.01006 20.7441 6.58246 20.7914 7.63546C20.844 8.77351 20.8548 9.11506 20.8548 11.9973C20.8548 14.8796 20.844 15.2225 20.7914 16.3605C20.7441 17.4135 20.5673 17.9846 20.4201 18.3653C20.247 18.8342 19.9706 19.2582 19.6115 19.6059C19.2335 19.9839 18.8744 20.2175 18.3695 20.4132C17.9915 20.5617 17.4191 20.7372 16.3647 20.7858C15.2267 20.8371 14.8851 20.8493 12.0015 20.8493C9.11795 20.8493 8.77504 20.8371 7.63699 20.7858C6.584 20.7372 6.01295 20.5617 5.63225 20.4132C5.16312 20.2403 4.73872 19.9644 4.39024 19.6059C4.03081 19.2577 3.75402 18.8332 3.58025 18.3639C3.4331 17.9846 3.25625 17.4122 3.209 16.3592C3.1577 15.2211 3.1469 14.8796 3.1469 11.9946C3.1469 9.11101 3.1577 8.77081 3.209 7.63276C3.2576 6.57976 3.4331 6.00736 3.5816 5.62666C3.77735 5.12311 4.01224 4.76266 4.39024 4.38466C4.76824 4.00666 5.12735 3.77311 5.63225 3.57736C6.01295 3.42886 6.584 3.25336 7.63699 3.20476C8.6333 3.15886 9.01939 3.14536 11.0322 3.14401V3.14671ZM17.766 4.93951C17.5958 4.93951 17.4273 4.97303 17.2701 5.03816C17.1128 5.10329 16.97 5.19876 16.8496 5.3191C16.7293 5.43945 16.6338 5.58232 16.5687 5.73955C16.5036 5.89679 16.47 6.06532 16.47 6.23551C16.47 6.4057 16.5036 6.57423 16.5687 6.73147C16.6338 6.88871 16.7293 7.03158 16.8496 7.15192C16.97 7.27227 17.1128 7.36773 17.2701 7.43286C17.4273 7.49799 17.5958 7.53151 17.766 7.53151C18.1098 7.53151 18.4394 7.39497 18.6825 7.15192C18.9255 6.90887 19.062 6.57923 19.062 6.23551C19.062 5.89179 18.9255 5.56215 18.6825 5.3191C18.4394 5.07605 18.1098 4.93951 17.766 4.93951ZM12.0015 6.45421C11.2659 6.44273 10.5353 6.57772 9.85231 6.8513C9.16933 7.12489 8.54759 7.53161 8.0233 8.04778C7.49901 8.56396 7.08264 9.17928 6.79843 9.85791C6.51422 10.5365 6.36786 11.2649 6.36786 12.0007C6.36786 12.7364 6.51422 13.4648 6.79843 14.1435C7.08264 14.8221 7.49901 15.4374 8.0233 15.9536C8.54759 16.4698 9.16933 16.8765 9.85231 17.1501C10.5353 17.4237 11.2659 17.5586 12.0015 17.5472C13.4576 17.5244 14.8463 16.9301 15.8679 15.8924C16.8895 14.8547 17.4622 13.4569 17.4622 12.0007C17.4622 10.5445 16.8895 9.14667 15.8679 8.10897C14.8463 7.07128 13.4576 6.47693 12.0015 6.45421ZM12.0015 8.39956C12.9564 8.39956 13.8722 8.77889 14.5474 9.45411C15.2227 10.1293 15.602 11.0451 15.602 12C15.602 12.9549 15.2227 13.8707 14.5474 14.5459C13.8722 15.2211 12.9564 15.6005 12.0015 15.6005C11.0466 15.6005 10.1309 15.2211 9.45564 14.5459C8.78043 13.8707 8.40109 12.9549 8.40109 12C8.40109 11.0451 8.78043 10.1293 9.45564 9.45411C10.1309 8.77889 11.0466 8.39956 12.0015 8.39956Z" fill="white" fill-opacity="0.5"/>
</svg>
