<svg width="28" height="28" viewBox="0 0 28 28" fill="none" xmlns="http://www.w3.org/2000/svg">
<path d="M8.33962 7.56528C8.43259 7.65041 8.50635 7.75151 8.55668 7.86279C8.607 7.97406 8.63291 8.09334 8.63291 8.2138C8.63291 8.33426 8.607 8.45354 8.55668 8.56482C8.50635 8.67609 8.43259 8.77719 8.33962 8.86232C6.83906 10.238 5.99607 12.1037 5.99607 14.0491C5.99607 15.9944 6.83906 17.8601 8.33962 19.2358C8.43246 19.321 8.5061 19.4221 8.55632 19.5334C8.60654 19.6446 8.63237 19.7638 8.63232 19.8842C8.63227 20.0046 8.60636 20.1238 8.55605 20.2351C8.50574 20.3463 8.43203 20.4473 8.33912 20.5324C8.24621 20.6175 8.13592 20.685 8.01455 20.7311C7.89318 20.7771 7.76311 20.8008 7.63176 20.8007C7.50042 20.8007 7.37036 20.7769 7.24903 20.7308C7.1277 20.6847 7.01746 20.6171 6.92462 20.532C3.01862 16.9516 3.01862 11.1456 6.92462 7.56528C7.01749 7.48006 7.12778 7.41245 7.24918 7.36632C7.37058 7.32019 7.5007 7.29645 7.63212 7.29645C7.76353 7.29645 7.89366 7.32019 8.01506 7.36632C8.13646 7.41245 8.24675 7.48006 8.33962 7.56528ZM21.0706 7.56528C24.9766 11.1466 24.9766 16.9516 21.0706 20.532C20.882 20.6989 20.6294 20.7913 20.3672 20.7892C20.105 20.7871 19.8542 20.6907 19.6688 20.5208C19.4834 20.3508 19.3782 20.1209 19.3759 19.8806C19.3737 19.6403 19.4745 19.4087 19.6566 19.2358C21.1572 17.8601 22.0002 15.9944 22.0002 14.0491C22.0002 12.1037 21.1572 10.238 19.6566 8.86232C19.469 8.69044 19.3635 8.45728 19.3634 8.21412C19.3633 7.97097 19.4686 7.73774 19.6561 7.56574C19.8436 7.39374 20.098 7.29707 20.3633 7.29698C20.6285 7.2969 20.883 7.39341 21.0706 7.56528ZM11.3066 10.1997C11.4941 10.3716 11.5994 10.6047 11.5994 10.8477C11.5994 11.0908 11.4941 11.3239 11.3066 11.4958C10.9426 11.8295 10.6538 12.2256 10.4568 12.6616C10.2597 13.0975 10.1583 13.5648 10.1583 14.0367C10.1583 14.5086 10.2597 14.9759 10.4568 15.4118C10.6538 15.8478 10.9426 16.2439 11.3066 16.5776C11.4021 16.6622 11.4783 16.7633 11.5307 16.8751C11.5831 16.987 11.6107 17.1073 11.6119 17.229C11.613 17.3507 11.5877 17.4714 11.5374 17.584C11.4872 17.6967 11.4129 17.799 11.319 17.8851C11.2251 17.9712 11.1135 18.0392 10.9906 18.0853C10.8677 18.1314 10.736 18.1546 10.6032 18.1535C10.4704 18.1525 10.3392 18.1272 10.2172 18.0791C10.0952 18.0311 9.98487 17.9613 9.89262 17.8737C8.78245 16.8561 8.15876 15.4759 8.15876 14.0367C8.15876 12.5976 8.78245 11.2173 9.89262 10.1997C10.0801 10.0278 10.3345 9.93131 10.5996 9.93131C10.8648 9.93131 11.1191 10.0278 11.3066 10.1997ZM18.2656 10.1997C19.3758 11.2173 19.9995 12.5976 19.9995 14.0367C19.9995 15.4759 19.3758 16.8561 18.2656 17.8737C18.1728 17.9589 18.0625 18.0265 17.9412 18.0726C17.8199 18.1187 17.6898 18.1424 17.5585 18.1425C17.4271 18.1425 17.2971 18.1189 17.1757 18.0728C17.0543 18.0268 16.944 17.9593 16.8511 17.8742C16.7582 17.7891 16.6845 17.688 16.6342 17.5768C16.5839 17.4656 16.558 17.3464 16.5579 17.226C16.5579 17.1056 16.5837 16.9864 16.6339 16.8751C16.6841 16.7639 16.7578 16.6628 16.8506 16.5776C17.2147 16.2439 17.5034 15.8478 17.7005 15.4118C17.8975 14.9759 17.9989 14.5086 17.9989 14.0367C17.9989 13.5648 17.8975 13.0975 17.7005 12.6616C17.5034 12.2256 17.2147 11.8295 16.8506 11.4958C16.6631 11.3238 16.5578 11.0906 16.5579 10.8474C16.558 10.6043 16.6635 10.3711 16.8511 10.1992C17.0388 10.0274 17.2932 9.93084 17.5585 9.93093C17.8237 9.93101 18.0781 10.0277 18.2656 10.1997ZM14.0786 12.7388C14.2756 12.7388 14.4707 12.7743 14.6526 12.8434C14.8346 12.9125 15 13.0138 15.1393 13.1415C15.2786 13.2691 15.3891 13.4207 15.4644 13.5875C15.5398 13.7543 15.5786 13.9331 15.5786 14.1137C15.5786 14.2943 15.5398 14.4731 15.4644 14.6399C15.3891 14.8067 15.2786 14.9583 15.1393 15.0859C15 15.2136 14.8346 15.3149 14.6526 15.384C14.4707 15.4531 14.2756 15.4887 14.0786 15.4887C13.6808 15.4887 13.2993 15.3438 13.018 15.0859C12.7367 14.8281 12.5786 14.4784 12.5786 14.1137C12.5786 13.749 12.7367 13.3993 13.018 13.1415C13.2993 12.8836 13.6808 12.7388 14.0786 12.7388Z" fill="white"/>
</svg>
