<svg width="19" height="19" viewBox="0 0 19 19" fill="none" xmlns="http://www.w3.org/2000/svg">
<path d="M1.97344 9.18765C1.77328 9.34778 1.77328 9.65222 1.97344 9.81235L4.89146 12.1468C5.15337 12.3563 5.54134 12.1698 5.54134 11.8344V10.2917H12.2663C12.4873 10.2917 12.6663 10.1126 12.6663 9.89167V9.10834C12.6663 8.88742 12.4873 8.70834 12.2663 8.70834H5.54134V7.16559C5.54134 6.83018 5.15337 6.64371 4.89146 6.85324L1.97344 9.18765Z" fill="#5EB6E5"/>
<path d="M10.2921 2.37421C9.35595 2.37162 8.42861 2.5548 7.56379 2.91315C6.82193 3.22055 6.13872 3.6516 5.54286 4.18706C5.3789 4.3344 5.38002 4.58795 5.53589 4.74382L6.09048 5.29841C6.24669 5.45462 6.49907 5.45338 6.66591 5.30859C7.67267 4.43489 8.9457 3.95754 10.2921 3.95754C11.7725 3.95754 13.1642 4.53467 14.2108 5.58125C15.2574 6.62784 15.8345 8.01959 15.8345 9.5C15.8345 10.9804 15.2574 12.3722 14.2108 13.4188C13.1642 14.4653 11.7725 15.0425 10.2921 15.0425C8.9457 15.0425 7.67267 14.5651 6.66591 13.6914C6.49907 13.5466 6.24669 13.5454 6.09048 13.7016L5.53667 14.2554C5.38049 14.4116 5.37977 14.6658 5.54423 14.8132C6.85123 15.9847 8.52205 16.6258 10.2921 16.6258C12.196 16.6258 13.9852 15.884 15.3302 14.5382C16.6761 13.1931 17.4179 11.404 17.4179 9.5C17.4179 7.59604 16.6761 5.80688 15.3302 4.46184C14.6703 3.79789 13.8852 3.2715 13.0204 2.91315C12.1555 2.5548 11.2282 2.37162 10.2921 2.37421Z" fill="#5EB6E5"/>
</svg>
