<svg width="24" height="24" viewBox="0 0 24 24" fill="none" xmlns="http://www.w3.org/2000/svg">
<path d="M19.1464 10.1464C19.4614 10.4614 20 10.2383 20 9.79289V4.5C20 4.22386 19.7761 4 19.5 4H14.2071C13.7617 4 13.5386 4.53857 13.8536 4.85355L15.4394 6.43945C15.6347 6.63471 15.6347 6.95129 15.4394 7.14655L11.7709 10.8151C11.5979 10.9881 11.3262 11.0084 11.1177 10.8805C10.182 10.3062 9.10329 10.0001 8 10C4.691 10 2 12.691 2 16C2 19.309 4.691 22 8 22C11.309 22 14 19.309 14 16C14 14.8573 13.6756 13.791 13.1184 12.8818C12.9908 12.6735 13.0115 12.4025 13.1842 12.2298L16.8534 8.56055C17.0487 8.36529 17.3653 8.36529 17.5606 8.56055L19.1464 10.1464ZM8 20C5.794 20 4 18.206 4 16C4 13.794 5.794 12 8 12C10.206 12 12 13.794 12 16C12 18.206 10.206 20 8 20Z" fill="white"/>
</svg>
