<svg width="28" height="28" viewBox="0 0 28 28" fill="none" xmlns="http://www.w3.org/2000/svg">
<g clip-path="url(#clip0)">
<path fill-rule="evenodd" clip-rule="evenodd" d="M19.25 14C19.25 14.1989 19.329 14.3897 19.4697 14.5303C19.6103 14.671 19.8011 14.75 20 14.75C20.1989 14.75 20.3897 14.671 20.5303 14.5303C20.671 14.3897 20.75 14.1989 20.75 14C20.75 13.8011 20.671 13.6103 20.5303 13.4697C20.3897 13.329 20.1989 13.25 20 13.25C19.8011 13.25 19.6103 13.329 19.4697 13.4697C19.329 13.6103 19.25 13.8011 19.25 14ZM13.25 14C13.25 14.1989 13.329 14.3897 13.4697 14.5303C13.6103 14.671 13.8011 14.75 14 14.75C14.1989 14.75 14.3897 14.671 14.5303 14.5303C14.671 14.3897 14.75 14.1989 14.75 14C14.75 13.8011 14.671 13.6103 14.5303 13.4697C14.3897 13.329 14.1989 13.25 14 13.25C13.8011 13.25 13.6103 13.329 13.4697 13.4697C13.329 13.6103 13.25 13.8011 13.25 14ZM7.25 14C7.25 14.1989 7.32902 14.3897 7.46967 14.5303C7.61032 14.671 7.80109 14.75 8 14.75C8.19891 14.75 8.38968 14.671 8.53033 14.5303C8.67098 14.3897 8.75 14.1989 8.75 14C8.75 13.8011 8.67098 13.6103 8.53033 13.4697C8.38968 13.329 8.19891 13.25 8 13.25C7.80109 13.25 7.61032 13.329 7.46967 13.4697C7.32902 13.6103 7.25 13.8011 7.25 14ZM20 16.25C19.4033 16.25 18.831 16.0129 18.409 15.591C17.9871 15.169 17.75 14.5967 17.75 14C17.75 13.4033 17.9871 12.831 18.409 12.409C18.831 11.9871 19.4033 11.75 20 11.75C20.5967 11.75 21.169 11.9871 21.591 12.409C22.0129 12.831 22.25 13.4033 22.25 14C22.25 14.5967 22.0129 15.169 21.591 15.591C21.169 16.0129 20.5967 16.25 20 16.25ZM14 16.25C13.4033 16.25 12.831 16.0129 12.409 15.591C11.9871 15.169 11.75 14.5967 11.75 14C11.75 13.4033 11.9871 12.831 12.409 12.409C12.831 11.9871 13.4033 11.75 14 11.75C14.5967 11.75 15.169 11.9871 15.591 12.409C16.0129 12.831 16.25 13.4033 16.25 14C16.25 14.5967 16.0129 15.169 15.591 15.591C15.169 16.0129 14.5967 16.25 14 16.25ZM5.75 14C5.75 14.5967 5.98705 15.169 6.40901 15.591C6.83097 16.0129 7.40326 16.25 8 16.25C8.59674 16.25 9.16903 16.0129 9.59099 15.591C10.0129 15.169 10.25 14.5967 10.25 14C10.25 13.4033 10.0129 12.831 9.59099 12.409C9.16903 11.9871 8.59674 11.75 8 11.75C7.40326 11.75 6.83097 11.9871 6.40901 12.409C5.98705 12.831 5.75 13.4033 5.75 14Z" fill="white"/>
</g>
<rect x="0.75" y="0.75" width="26.5" height="26.5" rx="13.25" stroke="white" stroke-width="1.5"/>
<defs>
<clipPath id="clip0">
<rect width="18" height="18" fill="white" transform="translate(23 5) rotate(90)"/>
</clipPath>
</defs>
</svg>
