<svg width="28" height="28" viewBox="0 0 28 28" fill="none" xmlns="http://www.w3.org/2000/svg">
<path d="M23.7998 3.73334H5.13314C3.8463 3.73334 2.7998 4.77984 2.7998 6.06667V22.4C2.7998 23.6868 3.8463 24.7333 5.13314 24.7333H23.7998C25.0866 24.7333 26.1331 23.6868 26.1331 22.4V6.06667C26.1331 4.77984 25.0866 3.73334 23.7998 3.73334ZM23.801 10.7333C23.7998 10.7333 23.7998 10.7333 23.801 10.7333H23.2573L20.1458 6.06667H23.7998L23.801 10.7333ZM11.5906 10.7333L8.47914 6.06667H11.509L14.6205 10.7333H11.5906ZM17.424 10.7333L14.3125 6.06667H17.3423L20.4538 10.7333H17.424ZM5.13314 6.06667H5.67564L8.78714 10.7333H5.13314V6.06667ZM5.13314 22.4V13.0667H23.7998L23.8021 22.4H5.13314Z" fill="white"/>
</svg>
