<svg width="28" height="28" viewBox="0 0 28 28" fill="none" xmlns="http://www.w3.org/2000/svg">
<path d="M23.333 5.99984H9.68301L18.3884 2.47974C18.902 2.27204 19.1489 1.68631 18.9389 1.1736L18.9047 1.09013C18.6956 0.579744 18.1128 0.335003 17.602 0.543113L3.77967 6.17484C2.92801 6.5015 2.33301 7.36484 2.33301 8.33317V22.3332C2.33301 22.952 2.57884 23.5455 3.01643 23.9831C3.45401 24.4207 4.0475 24.6665 4.66634 24.6665H23.333C23.9518 24.6665 24.5453 24.4207 24.9829 23.9831C25.4205 23.5455 25.6663 22.952 25.6663 22.3332V8.33317C25.6663 7.03817 24.628 5.99984 23.333 5.99984ZM23.333 8.33317V11.8332H20.9997V10.4998C20.9997 9.94755 20.552 9.49984 19.9997 9.49984H19.6663C19.1141 9.49984 18.6663 9.94755 18.6663 10.4998V11.8332H4.66634V8.33317H23.333ZM4.66634 22.3332V14.1665H23.333V22.3332H4.66634Z" fill="white"/>
<path d="M9.33366 21.1434C10.9445 21.1434 12.2503 19.8376 12.2503 18.2267C12.2503 16.6159 10.9445 15.3101 9.33366 15.3101C7.72283 15.3101 6.41699 16.6159 6.41699 18.2267C6.41699 19.8376 7.72283 21.1434 9.33366 21.1434Z" fill="white"/>
</svg>
