<svg width="24" height="24" viewBox="0 0 24 24" fill="none" xmlns="http://www.w3.org/2000/svg">
<path fill-rule="evenodd" clip-rule="evenodd" d="M15.4601 14.9855L19.7639 19.2894C19.9151 19.4407 20.0001 19.646 20 19.86C19.9999 20.074 19.9148 20.2793 19.7635 20.4305C19.6121 20.5818 19.4068 20.6668 19.1928 20.6667C18.9788 20.6666 18.7736 20.5815 18.6223 20.4301L14.3185 16.1262C13.0319 17.1228 11.4141 17.5917 9.79403 17.4377C8.17398 17.2837 6.67346 16.5182 5.59771 15.2971C4.52196 14.076 3.95179 12.491 4.0032 10.8644C4.0546 9.23781 4.72372 7.6919 5.87443 6.54117C7.02514 5.39043 8.57101 4.72129 10.1975 4.66988C11.8241 4.61848 13.4091 5.18866 14.6302 6.26443C15.8513 7.34021 16.6167 8.84077 16.7707 10.4609C16.9247 12.0809 16.4558 13.6989 15.4593 14.9855H15.4601ZM10.4003 15.8662C11.6733 15.8662 12.8941 15.3605 13.7943 14.4604C14.6944 13.5602 15.2001 12.3394 15.2001 11.0663C15.2001 9.79333 14.6944 8.57246 13.7943 7.6723C12.8941 6.77215 11.6733 6.26645 10.4003 6.26645C9.12732 6.26645 7.90648 6.77215 7.00634 7.6723C6.10621 8.57246 5.60052 9.79333 5.60052 11.0663C5.60052 12.3394 6.10621 13.5602 7.00634 14.4604C7.90648 15.3605 9.12732 15.8662 10.4003 15.8662Z" fill="#C2C9D1"/>
</svg>
