<svg width="28" height="28" viewBox="0 0 28 28" fill="none" xmlns="http://www.w3.org/2000/svg">
<g clip-path="url(#clip0)">
<path d="M16.8687 3.01956C10.6482 1.35276 4.24685 5.04857 2.58005 11.2691C0.913259 17.4897 4.60907 23.891 10.8296 25.5578C17.0502 27.2246 23.4515 23.5288 25.1183 17.3082C26.7851 11.0877 23.0893 4.68635 16.8687 3.01956ZM16.9992 7.04032L18.8074 6.3774C20.6766 7.5553 22.0681 9.35741 22.7347 11.4639L21.8906 12.8562L20.2304 12.9669L16.5765 8.618L16.9992 7.04032ZM13.5109 4.95821L14.7454 6.43641L14.3226 8.01409L8.9838 9.95338L7.60137 9.02736L7.56649 7.39953C9.20209 5.91659 11.3051 5.05288 13.5109 4.95821ZM6.76178 18.5616L5.4469 18.3301C4.4709 16.322 4.25319 14.0289 4.83388 11.873C4.87012 11.7378 4.9146 11.6169 4.9621 11.4847L6.30944 10.964L7.71965 11.9216L8.05445 17.2532L6.76178 18.5616ZM14.3746 23.5969C13.4059 23.6513 12.414 23.5667 11.4335 23.304C10.4531 23.0413 9.55182 22.6186 8.74006 22.0871L8.41241 20.1996L9.46578 19.1533L15.2243 20.6963L15.6104 22.1404L14.3746 23.5969ZM15.5014 18.3549L10.3852 16.984L10.0778 12.0462L14.9242 10.2769L18.2479 14.2353L15.5014 18.3549ZM19.1051 21.9898L17.8506 21.5328L17.374 19.7504L20.3298 15.3005L22.0381 15.1905L22.9446 16.3151C22.9227 16.4421 22.9007 16.5691 22.8645 16.7043C22.2636 18.9469 20.8914 20.7774 19.1051 21.9898Z" fill="white"/>
</g>
<defs>
<clipPath id="clip0">
<rect width="28" height="28" fill="white"/>
</clipPath>
</defs>
</svg>
